# xmcd
#
# Track frame offsets:
#	150
#	3887
#	22762
#	47110
#	57052
#	71172
#	91100
#	115847
#	120530
#	135212
#	156277
#	176562
#	194587
#	208932
#
# Disc length: 3069 seconds
#
# Revision: 1
# Processed by: cddbd v1.5.1PL0 Copyright (c) Steve Scherf et al.
# Submitted via: CDex 1.50Beta5
#
DISCID=b40bfb0e
DTITLE=安部恭弘 - パノラマメモリー
DYEAR=1900
DGENRE=Pop
TTITLE0=安部恭弘/'Cause I Love You
TTITLE1=Music
TTITLE2=Hold Me Tight
TTITLE3=安部恭弘/MANHATTAN
TTITLE4=New York Night
TTITLE5=STILL I LOVE YOU
TTITLE6=トパーズ色の月
TTITLE7=安部恭弘/MANHATTAN
TTITLE8=DOUBLE IMAGINATION
TTITLE9=FUNNY LADY
TTITLE10=君の愛がすべて
TTITLE11=グッバイは甘いリズムにのせて
TTITLE12=KISS MARK
TTITLE13=安部恭弘/裸足のバレリーナ
EXTD=
EXTT0=
EXTT1=
EXTT2=
EXTT3=
EXTT4=
EXTT5=
EXTT6=
EXTT7=
EXTT8=
EXTT9=
EXTT10=
EXTT11=
EXTT12=
EXTT13=
PLAYORDER=
